# xmcd
#
# Track frame offsets:
#	187
#	13220
#	24517
#	37972
#	52560
#	68927
#	84897
#	100222
#	114962
#	126092
#	142757
#	159245
#
# Disc length: 2345 seconds
# Revision: 5
# Processed by: cddbd v1.5.2PL0 Copyright (c) Steve Scherf et al.
# Submitted via: dBpowerAMP V12.0
#
DISCID=8309270c
DTITLE=Olivia Newton-John - Olivia Newton-John's Greatest Hits
DYEAR=1977
DGENRE=Pop
TTITLE0=If Not For You
TTITLE1=Changes
TTITLE2=Let Me Be There
TTITLE3=If You Love Me (Let Me Know)
TTITLE4=I Honestly Love You
TTITLE5=Have You Never Been Mellow
TTITLE6=Please Mr. Please
TTITLE7=Something Better To Do
TTITLE8=Let It Shine
TTITLE9=Come On Over
TTITLE10=Don't Stop Believin'
TTITLE11=Sam
EXTD=
EXTT0=
EXTT1=
EXTT2=
EXTT3=
EXTT4=
EXTT5=
EXTT6=
EXTT7=
EXTT8=
EXTT9=
EXTT10=
EXTT11=
PLAYORDER=
